<mxfile host="app.diagrams.net" modified="2023-09-24T23:28:56.301Z" agent="Mozilla/5.0 (Windows NT 10.0; Win64; x64) AppleWebKit/537.36 (KHTML, like Gecko) Chrome/116.0.0.0 Safari/537.36" etag="bJ5Un_lnHQh8i_Ens8SA" version="21.8.1" type="device">
  <diagram name="Page-1" id="WxhNArQhoEFWM4Mbvrin">
    <mxGraphModel dx="3500" dy="1887" grid="1" gridSize="10" guides="1" tooltips="1" connect="1" arrows="1" fold="1" page="1" pageScale="1" pageWidth="3300" pageHeight="4681" math="0" shadow="0">
      <root>
        <mxCell id="0" />
        <mxCell id="1" parent="0" />
        <mxCell id="iW7-zxRLfLR2xyhtsmo3-79" value="" style="ellipse;whiteSpace=wrap;html=1;" vertex="1" parent="1">
          <mxGeometry x="2646" y="906" width="108" height="108" as="geometry" />
        </mxCell>
        <mxCell id="iW7-zxRLfLR2xyhtsmo3-5" value="" style="edgeStyle=orthogonalEdgeStyle;rounded=0;orthogonalLoop=1;jettySize=auto;html=1;" edge="1" parent="1" source="iW7-zxRLfLR2xyhtsmo3-1" target="iW7-zxRLfLR2xyhtsmo3-4">
          <mxGeometry relative="1" as="geometry" />
        </mxCell>
        <mxCell id="iW7-zxRLfLR2xyhtsmo3-6" value="U" style="edgeLabel;html=1;align=center;verticalAlign=middle;resizable=0;points=[];" vertex="1" connectable="0" parent="iW7-zxRLfLR2xyhtsmo3-5">
          <mxGeometry x="-0.1667" y="1" relative="1" as="geometry">
            <mxPoint as="offset" />
          </mxGeometry>
        </mxCell>
        <mxCell id="iW7-zxRLfLR2xyhtsmo3-1" value="q0" style="ellipse;whiteSpace=wrap;html=1;aspect=fixed;" vertex="1" parent="1">
          <mxGeometry x="585" y="850" width="80" height="80" as="geometry" />
        </mxCell>
        <mxCell id="iW7-zxRLfLR2xyhtsmo3-2" value="" style="shape=flexArrow;endArrow=classic;html=1;rounded=0;" edge="1" parent="1">
          <mxGeometry width="50" height="50" relative="1" as="geometry">
            <mxPoint x="515" y="890" as="sourcePoint" />
            <mxPoint x="585" y="890" as="targetPoint" />
          </mxGeometry>
        </mxCell>
        <mxCell id="iW7-zxRLfLR2xyhtsmo3-3" value="Start" style="text;html=1;align=center;verticalAlign=middle;resizable=0;points=[];autosize=1;strokeColor=none;fillColor=none;" vertex="1" parent="1">
          <mxGeometry x="510" y="858" width="50" height="30" as="geometry" />
        </mxCell>
        <mxCell id="iW7-zxRLfLR2xyhtsmo3-9" value="" style="edgeStyle=orthogonalEdgeStyle;rounded=0;orthogonalLoop=1;jettySize=auto;html=1;" edge="1" parent="1" source="iW7-zxRLfLR2xyhtsmo3-4" target="iW7-zxRLfLR2xyhtsmo3-8">
          <mxGeometry relative="1" as="geometry" />
        </mxCell>
        <mxCell id="iW7-zxRLfLR2xyhtsmo3-10" value="M" style="edgeLabel;html=1;align=center;verticalAlign=middle;resizable=0;points=[];" vertex="1" connectable="0" parent="iW7-zxRLfLR2xyhtsmo3-9">
          <mxGeometry x="-0.1667" y="2" relative="1" as="geometry">
            <mxPoint as="offset" />
          </mxGeometry>
        </mxCell>
        <mxCell id="iW7-zxRLfLR2xyhtsmo3-12" value="" style="edgeStyle=orthogonalEdgeStyle;rounded=0;orthogonalLoop=1;jettySize=auto;html=1;" edge="1" parent="1" source="iW7-zxRLfLR2xyhtsmo3-4" target="iW7-zxRLfLR2xyhtsmo3-11">
          <mxGeometry relative="1" as="geometry" />
        </mxCell>
        <mxCell id="iW7-zxRLfLR2xyhtsmo3-13" value="M" style="edgeLabel;html=1;align=center;verticalAlign=middle;resizable=0;points=[];" vertex="1" connectable="0" parent="iW7-zxRLfLR2xyhtsmo3-12">
          <mxGeometry x="-0.175" y="-1" relative="1" as="geometry">
            <mxPoint as="offset" />
          </mxGeometry>
        </mxCell>
        <mxCell id="iW7-zxRLfLR2xyhtsmo3-14" style="edgeStyle=orthogonalEdgeStyle;rounded=0;orthogonalLoop=1;jettySize=auto;html=1;exitX=1;exitY=1;exitDx=0;exitDy=0;" edge="1" parent="1" source="iW7-zxRLfLR2xyhtsmo3-4">
          <mxGeometry relative="1" as="geometry">
            <mxPoint x="956.72" y="1061.7199999999998" as="targetPoint" />
            <mxPoint x="895.0042712474619" y="970.0042712474619" as="sourcePoint" />
            <Array as="points">
              <mxPoint x="855" y="918" />
              <mxPoint x="855" y="1062" />
            </Array>
          </mxGeometry>
        </mxCell>
        <mxCell id="iW7-zxRLfLR2xyhtsmo3-15" value="C" style="edgeLabel;html=1;align=center;verticalAlign=middle;resizable=0;points=[];" vertex="1" connectable="0" parent="iW7-zxRLfLR2xyhtsmo3-14">
          <mxGeometry x="-0.3162" relative="1" as="geometry">
            <mxPoint as="offset" />
          </mxGeometry>
        </mxCell>
        <mxCell id="iW7-zxRLfLR2xyhtsmo3-20" style="edgeStyle=orthogonalEdgeStyle;rounded=0;orthogonalLoop=1;jettySize=auto;html=1;exitX=1;exitY=0.5;exitDx=0;exitDy=0;" edge="1" parent="1" source="iW7-zxRLfLR2xyhtsmo3-4">
          <mxGeometry relative="1" as="geometry">
            <mxPoint x="955" y="890" as="targetPoint" />
          </mxGeometry>
        </mxCell>
        <mxCell id="iW7-zxRLfLR2xyhtsmo3-21" value="W" style="edgeLabel;html=1;align=center;verticalAlign=middle;resizable=0;points=[];" vertex="1" connectable="0" parent="iW7-zxRLfLR2xyhtsmo3-20">
          <mxGeometry x="-0.1847" y="3" relative="1" as="geometry">
            <mxPoint as="offset" />
          </mxGeometry>
        </mxCell>
        <mxCell id="iW7-zxRLfLR2xyhtsmo3-23" style="edgeStyle=orthogonalEdgeStyle;rounded=0;orthogonalLoop=1;jettySize=auto;html=1;exitX=0;exitY=1;exitDx=0;exitDy=0;" edge="1" parent="1" source="iW7-zxRLfLR2xyhtsmo3-4">
          <mxGeometry relative="1" as="geometry">
            <mxPoint x="695" y="1230" as="targetPoint" />
          </mxGeometry>
        </mxCell>
        <mxCell id="iW7-zxRLfLR2xyhtsmo3-25" value="W" style="edgeLabel;html=1;align=center;verticalAlign=middle;resizable=0;points=[];" vertex="1" connectable="0" parent="iW7-zxRLfLR2xyhtsmo3-23">
          <mxGeometry x="0.1998" y="-2" relative="1" as="geometry">
            <mxPoint as="offset" />
          </mxGeometry>
        </mxCell>
        <mxCell id="iW7-zxRLfLR2xyhtsmo3-96" style="edgeStyle=orthogonalEdgeStyle;rounded=0;orthogonalLoop=1;jettySize=auto;html=1;exitX=0;exitY=0;exitDx=0;exitDy=0;entryX=0.5;entryY=0;entryDx=0;entryDy=0;" edge="1" parent="1" source="iW7-zxRLfLR2xyhtsmo3-4" target="iW7-zxRLfLR2xyhtsmo3-1">
          <mxGeometry relative="1" as="geometry">
            <Array as="points">
              <mxPoint x="730" y="862" />
              <mxPoint x="730" y="830" />
              <mxPoint x="625" y="830" />
            </Array>
          </mxGeometry>
        </mxCell>
        <mxCell id="iW7-zxRLfLR2xyhtsmo3-97" value="O" style="edgeLabel;html=1;align=center;verticalAlign=middle;resizable=0;points=[];" vertex="1" connectable="0" parent="iW7-zxRLfLR2xyhtsmo3-96">
          <mxGeometry x="0.0828" y="1" relative="1" as="geometry">
            <mxPoint as="offset" />
          </mxGeometry>
        </mxCell>
        <mxCell id="iW7-zxRLfLR2xyhtsmo3-4" value="q1" style="ellipse;whiteSpace=wrap;html=1;" vertex="1" parent="1">
          <mxGeometry x="745" y="850" width="80" height="80" as="geometry" />
        </mxCell>
        <mxCell id="iW7-zxRLfLR2xyhtsmo3-45" value="" style="edgeStyle=orthogonalEdgeStyle;rounded=0;orthogonalLoop=1;jettySize=auto;html=1;" edge="1" parent="1" source="iW7-zxRLfLR2xyhtsmo3-8" target="iW7-zxRLfLR2xyhtsmo3-44">
          <mxGeometry relative="1" as="geometry" />
        </mxCell>
        <mxCell id="iW7-zxRLfLR2xyhtsmo3-46" value="W" style="edgeLabel;html=1;align=center;verticalAlign=middle;resizable=0;points=[];" vertex="1" connectable="0" parent="iW7-zxRLfLR2xyhtsmo3-45">
          <mxGeometry x="0.031" y="2" relative="1" as="geometry">
            <mxPoint as="offset" />
          </mxGeometry>
        </mxCell>
        <mxCell id="iW7-zxRLfLR2xyhtsmo3-107" style="edgeStyle=orthogonalEdgeStyle;rounded=0;orthogonalLoop=1;jettySize=auto;html=1;exitX=1;exitY=0;exitDx=0;exitDy=0;entryX=0;entryY=1;entryDx=0;entryDy=0;" edge="1" parent="1" source="iW7-zxRLfLR2xyhtsmo3-8" target="iW7-zxRLfLR2xyhtsmo3-104">
          <mxGeometry relative="1" as="geometry">
            <Array as="points">
              <mxPoint x="920" y="702" />
              <mxPoint x="920" y="598" />
            </Array>
          </mxGeometry>
        </mxCell>
        <mxCell id="iW7-zxRLfLR2xyhtsmo3-108" value="O" style="edgeLabel;html=1;align=center;verticalAlign=middle;resizable=0;points=[];" vertex="1" connectable="0" parent="iW7-zxRLfLR2xyhtsmo3-107">
          <mxGeometry x="0.1142" y="-2" relative="1" as="geometry">
            <mxPoint as="offset" />
          </mxGeometry>
        </mxCell>
        <mxCell id="iW7-zxRLfLR2xyhtsmo3-8" value="q2" style="ellipse;whiteSpace=wrap;html=1;" vertex="1" parent="1">
          <mxGeometry x="745" y="690" width="80" height="80" as="geometry" />
        </mxCell>
        <mxCell id="iW7-zxRLfLR2xyhtsmo3-39" value="" style="edgeStyle=orthogonalEdgeStyle;rounded=0;orthogonalLoop=1;jettySize=auto;html=1;" edge="1" parent="1" source="iW7-zxRLfLR2xyhtsmo3-11" target="iW7-zxRLfLR2xyhtsmo3-38">
          <mxGeometry relative="1" as="geometry" />
        </mxCell>
        <mxCell id="iW7-zxRLfLR2xyhtsmo3-40" value="C" style="edgeLabel;html=1;align=center;verticalAlign=middle;resizable=0;points=[];" vertex="1" connectable="0" parent="iW7-zxRLfLR2xyhtsmo3-39">
          <mxGeometry x="-0.225" y="-2" relative="1" as="geometry">
            <mxPoint as="offset" />
          </mxGeometry>
        </mxCell>
        <mxCell id="iW7-zxRLfLR2xyhtsmo3-86" style="edgeStyle=orthogonalEdgeStyle;rounded=0;orthogonalLoop=1;jettySize=auto;html=1;exitX=1;exitY=0.5;exitDx=0;exitDy=0;entryX=0;entryY=0.5;entryDx=0;entryDy=0;" edge="1" parent="1" source="iW7-zxRLfLR2xyhtsmo3-11" target="iW7-zxRLfLR2xyhtsmo3-83">
          <mxGeometry relative="1" as="geometry">
            <Array as="points">
              <mxPoint x="840" y="1050" />
              <mxPoint x="840" y="1210" />
            </Array>
          </mxGeometry>
        </mxCell>
        <mxCell id="iW7-zxRLfLR2xyhtsmo3-87" value="O" style="edgeLabel;html=1;align=center;verticalAlign=middle;resizable=0;points=[];" vertex="1" connectable="0" parent="iW7-zxRLfLR2xyhtsmo3-86">
          <mxGeometry x="-0.3734" y="2" relative="1" as="geometry">
            <mxPoint as="offset" />
          </mxGeometry>
        </mxCell>
        <mxCell id="iW7-zxRLfLR2xyhtsmo3-11" value="q3" style="ellipse;whiteSpace=wrap;html=1;" vertex="1" parent="1">
          <mxGeometry x="745" y="1010" width="80" height="80" as="geometry" />
        </mxCell>
        <mxCell id="iW7-zxRLfLR2xyhtsmo3-16" style="edgeStyle=orthogonalEdgeStyle;rounded=0;orthogonalLoop=1;jettySize=auto;html=1;exitX=1;exitY=0;exitDx=0;exitDy=0;" edge="1" parent="1">
          <mxGeometry relative="1" as="geometry">
            <mxPoint x="985" y="730" as="targetPoint" />
            <mxPoint x="805.0042712474622" y="857.9957287525378" as="sourcePoint" />
            <Array as="points">
              <mxPoint x="805" y="856" />
              <mxPoint x="857" y="856" />
            </Array>
          </mxGeometry>
        </mxCell>
        <mxCell id="iW7-zxRLfLR2xyhtsmo3-17" value="C" style="edgeLabel;html=1;align=center;verticalAlign=middle;resizable=0;points=[];" vertex="1" connectable="0" parent="iW7-zxRLfLR2xyhtsmo3-16">
          <mxGeometry x="-0.3162" relative="1" as="geometry">
            <mxPoint as="offset" />
          </mxGeometry>
        </mxCell>
        <mxCell id="iW7-zxRLfLR2xyhtsmo3-51" value="" style="edgeStyle=orthogonalEdgeStyle;rounded=0;orthogonalLoop=1;jettySize=auto;html=1;" edge="1" parent="1" source="iW7-zxRLfLR2xyhtsmo3-18" target="iW7-zxRLfLR2xyhtsmo3-50">
          <mxGeometry relative="1" as="geometry" />
        </mxCell>
        <mxCell id="iW7-zxRLfLR2xyhtsmo3-52" value="M" style="edgeLabel;html=1;align=center;verticalAlign=middle;resizable=0;points=[];" vertex="1" connectable="0" parent="iW7-zxRLfLR2xyhtsmo3-51">
          <mxGeometry x="-0.2529" y="-2" relative="1" as="geometry">
            <mxPoint as="offset" />
          </mxGeometry>
        </mxCell>
        <mxCell id="iW7-zxRLfLR2xyhtsmo3-111" style="edgeStyle=orthogonalEdgeStyle;rounded=0;orthogonalLoop=1;jettySize=auto;html=1;exitX=0.5;exitY=0;exitDx=0;exitDy=0;entryX=0.5;entryY=1;entryDx=0;entryDy=0;" edge="1" parent="1" source="iW7-zxRLfLR2xyhtsmo3-18" target="iW7-zxRLfLR2xyhtsmo3-104">
          <mxGeometry relative="1" as="geometry" />
        </mxCell>
        <mxCell id="iW7-zxRLfLR2xyhtsmo3-112" value="O" style="edgeLabel;html=1;align=center;verticalAlign=middle;resizable=0;points=[];" vertex="1" connectable="0" parent="iW7-zxRLfLR2xyhtsmo3-111">
          <mxGeometry x="-0.0583" y="1" relative="1" as="geometry">
            <mxPoint as="offset" />
          </mxGeometry>
        </mxCell>
        <mxCell id="iW7-zxRLfLR2xyhtsmo3-18" value="q15" style="ellipse;whiteSpace=wrap;html=1;" vertex="1" parent="1">
          <mxGeometry x="985" y="690" width="80" height="80" as="geometry" />
        </mxCell>
        <mxCell id="iW7-zxRLfLR2xyhtsmo3-57" value="" style="edgeStyle=orthogonalEdgeStyle;rounded=0;orthogonalLoop=1;jettySize=auto;html=1;" edge="1" parent="1" source="iW7-zxRLfLR2xyhtsmo3-19" target="iW7-zxRLfLR2xyhtsmo3-56">
          <mxGeometry relative="1" as="geometry" />
        </mxCell>
        <mxCell id="iW7-zxRLfLR2xyhtsmo3-58" value="w" style="edgeLabel;html=1;align=center;verticalAlign=middle;resizable=0;points=[];" vertex="1" connectable="0" parent="iW7-zxRLfLR2xyhtsmo3-57">
          <mxGeometry x="-0.0971" y="5" relative="1" as="geometry">
            <mxPoint as="offset" />
          </mxGeometry>
        </mxCell>
        <mxCell id="iW7-zxRLfLR2xyhtsmo3-98" style="edgeStyle=orthogonalEdgeStyle;rounded=0;orthogonalLoop=1;jettySize=auto;html=1;exitX=0.5;exitY=1;exitDx=0;exitDy=0;entryX=0.5;entryY=0;entryDx=0;entryDy=0;" edge="1" parent="1" source="iW7-zxRLfLR2xyhtsmo3-19" target="iW7-zxRLfLR2xyhtsmo3-83">
          <mxGeometry relative="1" as="geometry" />
        </mxCell>
        <mxCell id="iW7-zxRLfLR2xyhtsmo3-101" value="O" style="edgeLabel;html=1;align=center;verticalAlign=middle;resizable=0;points=[];" vertex="1" connectable="0" parent="iW7-zxRLfLR2xyhtsmo3-98">
          <mxGeometry x="-0.0952" y="3" relative="1" as="geometry">
            <mxPoint as="offset" />
          </mxGeometry>
        </mxCell>
        <mxCell id="iW7-zxRLfLR2xyhtsmo3-19" value="q9" style="ellipse;whiteSpace=wrap;html=1;" vertex="1" parent="1">
          <mxGeometry x="955" y="1020" width="80" height="80" as="geometry" />
        </mxCell>
        <mxCell id="iW7-zxRLfLR2xyhtsmo3-27" value="" style="edgeStyle=orthogonalEdgeStyle;rounded=0;orthogonalLoop=1;jettySize=auto;html=1;" edge="1" parent="1" source="iW7-zxRLfLR2xyhtsmo3-22" target="iW7-zxRLfLR2xyhtsmo3-26">
          <mxGeometry relative="1" as="geometry" />
        </mxCell>
        <mxCell id="iW7-zxRLfLR2xyhtsmo3-30" value="M" style="edgeLabel;html=1;align=center;verticalAlign=middle;resizable=0;points=[];" vertex="1" connectable="0" parent="iW7-zxRLfLR2xyhtsmo3-27">
          <mxGeometry x="-0.1655" relative="1" as="geometry">
            <mxPoint as="offset" />
          </mxGeometry>
        </mxCell>
        <mxCell id="iW7-zxRLfLR2xyhtsmo3-119" style="edgeStyle=orthogonalEdgeStyle;rounded=0;orthogonalLoop=1;jettySize=auto;html=1;exitX=0;exitY=0;exitDx=0;exitDy=0;entryX=0.5;entryY=0;entryDx=0;entryDy=0;" edge="1" parent="1" source="iW7-zxRLfLR2xyhtsmo3-22" target="iW7-zxRLfLR2xyhtsmo3-104">
          <mxGeometry relative="1" as="geometry" />
        </mxCell>
        <mxCell id="iW7-zxRLfLR2xyhtsmo3-120" value="O" style="edgeLabel;html=1;align=center;verticalAlign=middle;resizable=0;points=[];" vertex="1" connectable="0" parent="iW7-zxRLfLR2xyhtsmo3-119">
          <mxGeometry x="0.7539" y="-2" relative="1" as="geometry">
            <mxPoint as="offset" />
          </mxGeometry>
        </mxCell>
        <mxCell id="iW7-zxRLfLR2xyhtsmo3-22" value="q12" style="ellipse;whiteSpace=wrap;html=1;" vertex="1" parent="1">
          <mxGeometry x="955" y="850" width="80" height="80" as="geometry" />
        </mxCell>
        <mxCell id="iW7-zxRLfLR2xyhtsmo3-33" value="" style="edgeStyle=orthogonalEdgeStyle;rounded=0;orthogonalLoop=1;jettySize=auto;html=1;" edge="1" parent="1" source="iW7-zxRLfLR2xyhtsmo3-24" target="iW7-zxRLfLR2xyhtsmo3-32">
          <mxGeometry relative="1" as="geometry" />
        </mxCell>
        <mxCell id="iW7-zxRLfLR2xyhtsmo3-34" value="C" style="edgeLabel;html=1;align=center;verticalAlign=middle;resizable=0;points=[];" vertex="1" connectable="0" parent="iW7-zxRLfLR2xyhtsmo3-33">
          <mxGeometry x="-0.0569" relative="1" as="geometry">
            <mxPoint as="offset" />
          </mxGeometry>
        </mxCell>
        <mxCell id="iW7-zxRLfLR2xyhtsmo3-92" style="edgeStyle=orthogonalEdgeStyle;rounded=0;orthogonalLoop=1;jettySize=auto;html=1;exitX=1;exitY=0.5;exitDx=0;exitDy=0;entryX=0;entryY=1;entryDx=0;entryDy=0;" edge="1" parent="1" source="iW7-zxRLfLR2xyhtsmo3-24" target="iW7-zxRLfLR2xyhtsmo3-83">
          <mxGeometry relative="1" as="geometry" />
        </mxCell>
        <mxCell id="iW7-zxRLfLR2xyhtsmo3-93" value="O" style="edgeLabel;html=1;align=center;verticalAlign=middle;resizable=0;points=[];" vertex="1" connectable="0" parent="iW7-zxRLfLR2xyhtsmo3-92">
          <mxGeometry x="0.325" y="1" relative="1" as="geometry">
            <mxPoint as="offset" />
          </mxGeometry>
        </mxCell>
        <mxCell id="iW7-zxRLfLR2xyhtsmo3-24" value="q5" style="ellipse;whiteSpace=wrap;html=1;" vertex="1" parent="1">
          <mxGeometry x="655" y="1230" width="80" height="80" as="geometry" />
        </mxCell>
        <mxCell id="iW7-zxRLfLR2xyhtsmo3-29" value="" style="edgeStyle=orthogonalEdgeStyle;rounded=0;orthogonalLoop=1;jettySize=auto;html=1;" edge="1" parent="1" source="iW7-zxRLfLR2xyhtsmo3-26" target="iW7-zxRLfLR2xyhtsmo3-28">
          <mxGeometry relative="1" as="geometry" />
        </mxCell>
        <mxCell id="iW7-zxRLfLR2xyhtsmo3-31" value="C" style="edgeLabel;html=1;align=center;verticalAlign=middle;resizable=0;points=[];" vertex="1" connectable="0" parent="iW7-zxRLfLR2xyhtsmo3-29">
          <mxGeometry x="-0.1483" relative="1" as="geometry">
            <mxPoint as="offset" />
          </mxGeometry>
        </mxCell>
        <mxCell id="iW7-zxRLfLR2xyhtsmo3-118" style="edgeStyle=orthogonalEdgeStyle;rounded=0;orthogonalLoop=1;jettySize=auto;html=1;exitX=0;exitY=0;exitDx=0;exitDy=0;entryX=0;entryY=0.5;entryDx=0;entryDy=0;" edge="1" parent="1" source="iW7-zxRLfLR2xyhtsmo3-26">
          <mxGeometry relative="1" as="geometry">
            <mxPoint x="1126.7157287525379" y="857.9957287525378" as="sourcePoint" />
            <mxPoint x="1145" y="566.28" as="targetPoint" />
            <Array as="points">
              <mxPoint x="1127" y="709" />
              <mxPoint x="1127" y="566" />
            </Array>
          </mxGeometry>
        </mxCell>
        <mxCell id="iW7-zxRLfLR2xyhtsmo3-121" value="O" style="edgeLabel;html=1;align=center;verticalAlign=middle;resizable=0;points=[];" vertex="1" connectable="0" parent="iW7-zxRLfLR2xyhtsmo3-118">
          <mxGeometry x="0.3618" y="3" relative="1" as="geometry">
            <mxPoint as="offset" />
          </mxGeometry>
        </mxCell>
        <mxCell id="iW7-zxRLfLR2xyhtsmo3-26" value="q13" style="ellipse;whiteSpace=wrap;html=1;" vertex="1" parent="1">
          <mxGeometry x="1115" y="850" width="80" height="80" as="geometry" />
        </mxCell>
        <mxCell id="iW7-zxRLfLR2xyhtsmo3-68" style="edgeStyle=orthogonalEdgeStyle;rounded=0;orthogonalLoop=1;jettySize=auto;html=1;exitX=1;exitY=0.5;exitDx=0;exitDy=0;entryX=0;entryY=0.5;entryDx=0;entryDy=0;" edge="1" parent="1" source="iW7-zxRLfLR2xyhtsmo3-28" target="iW7-zxRLfLR2xyhtsmo3-62">
          <mxGeometry relative="1" as="geometry" />
        </mxCell>
        <mxCell id="iW7-zxRLfLR2xyhtsmo3-73" value="Epsilon" style="edgeLabel;html=1;align=center;verticalAlign=middle;resizable=0;points=[];" vertex="1" connectable="0" parent="iW7-zxRLfLR2xyhtsmo3-68">
          <mxGeometry x="-0.5443" y="3" relative="1" as="geometry">
            <mxPoint as="offset" />
          </mxGeometry>
        </mxCell>
        <mxCell id="iW7-zxRLfLR2xyhtsmo3-117" style="edgeStyle=orthogonalEdgeStyle;rounded=0;orthogonalLoop=1;jettySize=auto;html=1;exitX=0.13;exitY=0.162;exitDx=0;exitDy=0;entryX=0;entryY=0.5;entryDx=0;entryDy=0;exitPerimeter=0;" edge="1" parent="1" source="iW7-zxRLfLR2xyhtsmo3-28" target="iW7-zxRLfLR2xyhtsmo3-106">
          <mxGeometry relative="1" as="geometry">
            <Array as="points">
              <mxPoint x="1285" y="865" />
              <mxPoint x="1285" y="865" />
              <mxPoint x="1285" y="570" />
            </Array>
          </mxGeometry>
        </mxCell>
        <mxCell id="iW7-zxRLfLR2xyhtsmo3-122" value="O" style="edgeLabel;html=1;align=center;verticalAlign=middle;resizable=0;points=[];" vertex="1" connectable="0" parent="iW7-zxRLfLR2xyhtsmo3-117">
          <mxGeometry x="0.3384" y="2" relative="1" as="geometry">
            <mxPoint as="offset" />
          </mxGeometry>
        </mxCell>
        <mxCell id="iW7-zxRLfLR2xyhtsmo3-28" value="q14&amp;nbsp;" style="ellipse;whiteSpace=wrap;html=1;" vertex="1" parent="1">
          <mxGeometry x="1275" y="850" width="80" height="80" as="geometry" />
        </mxCell>
        <mxCell id="iW7-zxRLfLR2xyhtsmo3-36" value="" style="edgeStyle=orthogonalEdgeStyle;rounded=0;orthogonalLoop=1;jettySize=auto;html=1;" edge="1" parent="1" source="iW7-zxRLfLR2xyhtsmo3-32" target="iW7-zxRLfLR2xyhtsmo3-35">
          <mxGeometry relative="1" as="geometry" />
        </mxCell>
        <mxCell id="iW7-zxRLfLR2xyhtsmo3-37" value="M" style="edgeLabel;html=1;align=center;verticalAlign=middle;resizable=0;points=[];" vertex="1" connectable="0" parent="iW7-zxRLfLR2xyhtsmo3-36">
          <mxGeometry x="-0.0521" y="2" relative="1" as="geometry">
            <mxPoint as="offset" />
          </mxGeometry>
        </mxCell>
        <mxCell id="iW7-zxRLfLR2xyhtsmo3-94" style="edgeStyle=orthogonalEdgeStyle;rounded=0;orthogonalLoop=1;jettySize=auto;html=1;exitX=1;exitY=0.5;exitDx=0;exitDy=0;entryX=0.5;entryY=1;entryDx=0;entryDy=0;" edge="1" parent="1" source="iW7-zxRLfLR2xyhtsmo3-32" target="iW7-zxRLfLR2xyhtsmo3-83">
          <mxGeometry relative="1" as="geometry" />
        </mxCell>
        <mxCell id="iW7-zxRLfLR2xyhtsmo3-95" value="O" style="edgeLabel;html=1;align=center;verticalAlign=middle;resizable=0;points=[];" vertex="1" connectable="0" parent="iW7-zxRLfLR2xyhtsmo3-94">
          <mxGeometry x="-0.5258" y="1" relative="1" as="geometry">
            <mxPoint as="offset" />
          </mxGeometry>
        </mxCell>
        <mxCell id="iW7-zxRLfLR2xyhtsmo3-32" value="q7" style="ellipse;whiteSpace=wrap;html=1;" vertex="1" parent="1">
          <mxGeometry x="655" y="1390" width="80" height="80" as="geometry" />
        </mxCell>
        <mxCell id="iW7-zxRLfLR2xyhtsmo3-64" style="edgeStyle=orthogonalEdgeStyle;rounded=0;orthogonalLoop=1;jettySize=auto;html=1;exitX=0.5;exitY=1;exitDx=0;exitDy=0;entryX=0.5;entryY=1;entryDx=0;entryDy=0;" edge="1" parent="1" source="iW7-zxRLfLR2xyhtsmo3-35" target="iW7-zxRLfLR2xyhtsmo3-62">
          <mxGeometry relative="1" as="geometry" />
        </mxCell>
        <mxCell id="iW7-zxRLfLR2xyhtsmo3-72" value="Epsilon" style="edgeLabel;html=1;align=center;verticalAlign=middle;resizable=0;points=[];" vertex="1" connectable="0" parent="iW7-zxRLfLR2xyhtsmo3-64">
          <mxGeometry x="-0.4145" y="3" relative="1" as="geometry">
            <mxPoint as="offset" />
          </mxGeometry>
        </mxCell>
        <mxCell id="iW7-zxRLfLR2xyhtsmo3-35" value="q8&amp;nbsp;" style="ellipse;whiteSpace=wrap;html=1;" vertex="1" parent="1">
          <mxGeometry x="655" y="1550" width="80" height="80" as="geometry" />
        </mxCell>
        <mxCell id="iW7-zxRLfLR2xyhtsmo3-42" value="" style="edgeStyle=orthogonalEdgeStyle;rounded=0;orthogonalLoop=1;jettySize=auto;html=1;" edge="1" parent="1" source="iW7-zxRLfLR2xyhtsmo3-38" target="iW7-zxRLfLR2xyhtsmo3-41">
          <mxGeometry relative="1" as="geometry" />
        </mxCell>
        <mxCell id="iW7-zxRLfLR2xyhtsmo3-43" value="W" style="edgeLabel;html=1;align=center;verticalAlign=middle;resizable=0;points=[];" vertex="1" connectable="0" parent="iW7-zxRLfLR2xyhtsmo3-42">
          <mxGeometry x="-0.245" relative="1" as="geometry">
            <mxPoint as="offset" />
          </mxGeometry>
        </mxCell>
        <mxCell id="iW7-zxRLfLR2xyhtsmo3-88" style="edgeStyle=orthogonalEdgeStyle;rounded=0;orthogonalLoop=1;jettySize=auto;html=1;exitX=1;exitY=0;exitDx=0;exitDy=0;" edge="1" parent="1" source="iW7-zxRLfLR2xyhtsmo3-38" target="iW7-zxRLfLR2xyhtsmo3-83">
          <mxGeometry relative="1" as="geometry" />
        </mxCell>
        <mxCell id="iW7-zxRLfLR2xyhtsmo3-89" value="O" style="edgeLabel;html=1;align=center;verticalAlign=middle;resizable=0;points=[];" vertex="1" connectable="0" parent="iW7-zxRLfLR2xyhtsmo3-88">
          <mxGeometry x="-0.3657" y="-1" relative="1" as="geometry">
            <mxPoint as="offset" />
          </mxGeometry>
        </mxCell>
        <mxCell id="iW7-zxRLfLR2xyhtsmo3-38" value="q4" style="ellipse;whiteSpace=wrap;html=1;" vertex="1" parent="1">
          <mxGeometry x="745" y="1170" width="80" height="80" as="geometry" />
        </mxCell>
        <mxCell id="iW7-zxRLfLR2xyhtsmo3-66" style="edgeStyle=orthogonalEdgeStyle;rounded=0;orthogonalLoop=1;jettySize=auto;html=1;exitX=1;exitY=0.5;exitDx=0;exitDy=0;entryX=0;entryY=1;entryDx=0;entryDy=0;" edge="1" parent="1" source="iW7-zxRLfLR2xyhtsmo3-41" target="iW7-zxRLfLR2xyhtsmo3-62">
          <mxGeometry relative="1" as="geometry" />
        </mxCell>
        <mxCell id="iW7-zxRLfLR2xyhtsmo3-71" value="Epsilon" style="edgeLabel;html=1;align=center;verticalAlign=middle;resizable=0;points=[];" vertex="1" connectable="0" parent="iW7-zxRLfLR2xyhtsmo3-66">
          <mxGeometry x="-0.3381" y="4" relative="1" as="geometry">
            <mxPoint as="offset" />
          </mxGeometry>
        </mxCell>
        <mxCell id="iW7-zxRLfLR2xyhtsmo3-90" style="edgeStyle=orthogonalEdgeStyle;rounded=0;orthogonalLoop=1;jettySize=auto;html=1;exitX=1;exitY=0;exitDx=0;exitDy=0;entryX=0;entryY=1;entryDx=0;entryDy=0;" edge="1" parent="1" source="iW7-zxRLfLR2xyhtsmo3-41" target="iW7-zxRLfLR2xyhtsmo3-83">
          <mxGeometry relative="1" as="geometry" />
        </mxCell>
        <mxCell id="iW7-zxRLfLR2xyhtsmo3-91" value="O" style="edgeLabel;html=1;align=center;verticalAlign=middle;resizable=0;points=[];" vertex="1" connectable="0" parent="iW7-zxRLfLR2xyhtsmo3-90">
          <mxGeometry x="-0.5304" y="1" relative="1" as="geometry">
            <mxPoint as="offset" />
          </mxGeometry>
        </mxCell>
        <mxCell id="iW7-zxRLfLR2xyhtsmo3-41" value="q6" style="ellipse;whiteSpace=wrap;html=1;" vertex="1" parent="1">
          <mxGeometry x="745" y="1330" width="80" height="80" as="geometry" />
        </mxCell>
        <mxCell id="iW7-zxRLfLR2xyhtsmo3-48" value="" style="edgeStyle=orthogonalEdgeStyle;rounded=0;orthogonalLoop=1;jettySize=auto;html=1;" edge="1" parent="1" source="iW7-zxRLfLR2xyhtsmo3-44" target="iW7-zxRLfLR2xyhtsmo3-47">
          <mxGeometry relative="1" as="geometry" />
        </mxCell>
        <mxCell id="iW7-zxRLfLR2xyhtsmo3-49" value="C" style="edgeLabel;html=1;align=center;verticalAlign=middle;resizable=0;points=[];" vertex="1" connectable="0" parent="iW7-zxRLfLR2xyhtsmo3-48">
          <mxGeometry x="0.1706" y="2" relative="1" as="geometry">
            <mxPoint as="offset" />
          </mxGeometry>
        </mxCell>
        <mxCell id="iW7-zxRLfLR2xyhtsmo3-109" style="edgeStyle=orthogonalEdgeStyle;rounded=0;orthogonalLoop=1;jettySize=auto;html=1;exitX=1;exitY=0.5;exitDx=0;exitDy=0;entryX=0;entryY=0.5;entryDx=0;entryDy=0;" edge="1" parent="1" source="iW7-zxRLfLR2xyhtsmo3-44" target="iW7-zxRLfLR2xyhtsmo3-104">
          <mxGeometry relative="1" as="geometry" />
        </mxCell>
        <mxCell id="iW7-zxRLfLR2xyhtsmo3-110" value="O" style="edgeLabel;html=1;align=center;verticalAlign=middle;resizable=0;points=[];" vertex="1" connectable="0" parent="iW7-zxRLfLR2xyhtsmo3-109">
          <mxGeometry x="-0.1866" relative="1" as="geometry">
            <mxPoint as="offset" />
          </mxGeometry>
        </mxCell>
        <mxCell id="iW7-zxRLfLR2xyhtsmo3-44" value="q18&amp;nbsp;" style="ellipse;whiteSpace=wrap;html=1;" vertex="1" parent="1">
          <mxGeometry x="745" y="530" width="80" height="80" as="geometry" />
        </mxCell>
        <mxCell id="iW7-zxRLfLR2xyhtsmo3-63" style="edgeStyle=orthogonalEdgeStyle;rounded=0;orthogonalLoop=1;jettySize=auto;html=1;exitX=1;exitY=0.5;exitDx=0;exitDy=0;entryX=0.5;entryY=0;entryDx=0;entryDy=0;" edge="1" parent="1" source="iW7-zxRLfLR2xyhtsmo3-47" target="iW7-zxRLfLR2xyhtsmo3-62">
          <mxGeometry relative="1" as="geometry" />
        </mxCell>
        <mxCell id="iW7-zxRLfLR2xyhtsmo3-75" value="Epsilon" style="edgeLabel;html=1;align=center;verticalAlign=middle;resizable=0;points=[];" vertex="1" connectable="0" parent="iW7-zxRLfLR2xyhtsmo3-63">
          <mxGeometry x="-0.4392" y="2" relative="1" as="geometry">
            <mxPoint x="1" as="offset" />
          </mxGeometry>
        </mxCell>
        <mxCell id="iW7-zxRLfLR2xyhtsmo3-47" value="q19" style="ellipse;whiteSpace=wrap;html=1;" vertex="1" parent="1">
          <mxGeometry x="745" y="370" width="80" height="80" as="geometry" />
        </mxCell>
        <mxCell id="iW7-zxRLfLR2xyhtsmo3-54" value="" style="edgeStyle=orthogonalEdgeStyle;rounded=0;orthogonalLoop=1;jettySize=auto;html=1;" edge="1" parent="1" source="iW7-zxRLfLR2xyhtsmo3-50" target="iW7-zxRLfLR2xyhtsmo3-53">
          <mxGeometry relative="1" as="geometry" />
        </mxCell>
        <mxCell id="iW7-zxRLfLR2xyhtsmo3-55" value="W" style="edgeLabel;html=1;align=center;verticalAlign=middle;resizable=0;points=[];" vertex="1" connectable="0" parent="iW7-zxRLfLR2xyhtsmo3-54">
          <mxGeometry x="-0.1059" y="1" relative="1" as="geometry">
            <mxPoint as="offset" />
          </mxGeometry>
        </mxCell>
        <mxCell id="iW7-zxRLfLR2xyhtsmo3-113" style="edgeStyle=orthogonalEdgeStyle;rounded=0;orthogonalLoop=1;jettySize=auto;html=1;exitX=0.5;exitY=0;exitDx=0;exitDy=0;entryX=0.5;entryY=1;entryDx=0;entryDy=0;" edge="1" parent="1" source="iW7-zxRLfLR2xyhtsmo3-50" target="iW7-zxRLfLR2xyhtsmo3-105">
          <mxGeometry relative="1" as="geometry" />
        </mxCell>
        <mxCell id="iW7-zxRLfLR2xyhtsmo3-114" value="O" style="edgeLabel;html=1;align=center;verticalAlign=middle;resizable=0;points=[];" vertex="1" connectable="0" parent="iW7-zxRLfLR2xyhtsmo3-113">
          <mxGeometry x="-0.0167" y="1" relative="1" as="geometry">
            <mxPoint as="offset" />
          </mxGeometry>
        </mxCell>
        <mxCell id="iW7-zxRLfLR2xyhtsmo3-50" value="q16" style="ellipse;whiteSpace=wrap;html=1;" vertex="1" parent="1">
          <mxGeometry x="1145" y="690" width="80" height="80" as="geometry" />
        </mxCell>
        <mxCell id="iW7-zxRLfLR2xyhtsmo3-67" style="edgeStyle=orthogonalEdgeStyle;rounded=0;orthogonalLoop=1;jettySize=auto;html=1;exitX=1;exitY=0.5;exitDx=0;exitDy=0;entryX=0;entryY=0;entryDx=0;entryDy=0;" edge="1" parent="1" source="iW7-zxRLfLR2xyhtsmo3-53" target="iW7-zxRLfLR2xyhtsmo3-62">
          <mxGeometry relative="1" as="geometry" />
        </mxCell>
        <mxCell id="iW7-zxRLfLR2xyhtsmo3-74" value="Epsilon" style="edgeLabel;html=1;align=center;verticalAlign=middle;resizable=0;points=[];" vertex="1" connectable="0" parent="iW7-zxRLfLR2xyhtsmo3-67">
          <mxGeometry x="-0.4142" y="-1" relative="1" as="geometry">
            <mxPoint as="offset" />
          </mxGeometry>
        </mxCell>
        <mxCell id="iW7-zxRLfLR2xyhtsmo3-115" style="edgeStyle=orthogonalEdgeStyle;rounded=0;orthogonalLoop=1;jettySize=auto;html=1;exitX=0.5;exitY=0;exitDx=0;exitDy=0;entryX=0.5;entryY=1;entryDx=0;entryDy=0;" edge="1" parent="1" source="iW7-zxRLfLR2xyhtsmo3-53" target="iW7-zxRLfLR2xyhtsmo3-106">
          <mxGeometry relative="1" as="geometry" />
        </mxCell>
        <mxCell id="iW7-zxRLfLR2xyhtsmo3-116" value="O" style="edgeLabel;html=1;align=center;verticalAlign=middle;resizable=0;points=[];" vertex="1" connectable="0" parent="iW7-zxRLfLR2xyhtsmo3-115">
          <mxGeometry x="0.025" relative="1" as="geometry">
            <mxPoint as="offset" />
          </mxGeometry>
        </mxCell>
        <mxCell id="iW7-zxRLfLR2xyhtsmo3-53" value="q17&amp;nbsp;" style="ellipse;whiteSpace=wrap;html=1;" vertex="1" parent="1">
          <mxGeometry x="1305" y="690" width="80" height="80" as="geometry" />
        </mxCell>
        <mxCell id="iW7-zxRLfLR2xyhtsmo3-60" value="" style="edgeStyle=orthogonalEdgeStyle;rounded=0;orthogonalLoop=1;jettySize=auto;html=1;" edge="1" parent="1" source="iW7-zxRLfLR2xyhtsmo3-56" target="iW7-zxRLfLR2xyhtsmo3-59">
          <mxGeometry relative="1" as="geometry" />
        </mxCell>
        <mxCell id="iW7-zxRLfLR2xyhtsmo3-61" value="M" style="edgeLabel;html=1;align=center;verticalAlign=middle;resizable=0;points=[];" vertex="1" connectable="0" parent="iW7-zxRLfLR2xyhtsmo3-60">
          <mxGeometry x="-0.1265" relative="1" as="geometry">
            <mxPoint as="offset" />
          </mxGeometry>
        </mxCell>
        <mxCell id="iW7-zxRLfLR2xyhtsmo3-99" style="edgeStyle=orthogonalEdgeStyle;rounded=0;orthogonalLoop=1;jettySize=auto;html=1;exitX=0.5;exitY=1;exitDx=0;exitDy=0;entryX=0.5;entryY=0;entryDx=0;entryDy=0;" edge="1" parent="1" source="iW7-zxRLfLR2xyhtsmo3-56" target="iW7-zxRLfLR2xyhtsmo3-84">
          <mxGeometry relative="1" as="geometry" />
        </mxCell>
        <mxCell id="iW7-zxRLfLR2xyhtsmo3-102" value="O" style="edgeLabel;html=1;align=center;verticalAlign=middle;resizable=0;points=[];" vertex="1" connectable="0" parent="iW7-zxRLfLR2xyhtsmo3-99">
          <mxGeometry x="-0.2143" y="-3" relative="1" as="geometry">
            <mxPoint as="offset" />
          </mxGeometry>
        </mxCell>
        <mxCell id="iW7-zxRLfLR2xyhtsmo3-56" value="q10" style="ellipse;whiteSpace=wrap;html=1;" vertex="1" parent="1">
          <mxGeometry x="1115" y="1020" width="80" height="80" as="geometry" />
        </mxCell>
        <mxCell id="iW7-zxRLfLR2xyhtsmo3-100" style="edgeStyle=orthogonalEdgeStyle;rounded=0;orthogonalLoop=1;jettySize=auto;html=1;exitX=0.5;exitY=1;exitDx=0;exitDy=0;entryX=0.5;entryY=0;entryDx=0;entryDy=0;" edge="1" parent="1" source="iW7-zxRLfLR2xyhtsmo3-59" target="iW7-zxRLfLR2xyhtsmo3-85">
          <mxGeometry relative="1" as="geometry" />
        </mxCell>
        <mxCell id="iW7-zxRLfLR2xyhtsmo3-103" value="O" style="edgeLabel;html=1;align=center;verticalAlign=middle;resizable=0;points=[];" vertex="1" connectable="0" parent="iW7-zxRLfLR2xyhtsmo3-100">
          <mxGeometry x="-0.0476" y="-2" relative="1" as="geometry">
            <mxPoint as="offset" />
          </mxGeometry>
        </mxCell>
        <mxCell id="iW7-zxRLfLR2xyhtsmo3-59" value="q11" style="ellipse;whiteSpace=wrap;html=1;" vertex="1" parent="1">
          <mxGeometry x="1275" y="1020" width="80" height="80" as="geometry" />
        </mxCell>
        <mxCell id="iW7-zxRLfLR2xyhtsmo3-78" value="" style="edgeStyle=orthogonalEdgeStyle;rounded=0;orthogonalLoop=1;jettySize=auto;html=1;" edge="1" parent="1" source="iW7-zxRLfLR2xyhtsmo3-62" target="iW7-zxRLfLR2xyhtsmo3-77">
          <mxGeometry relative="1" as="geometry" />
        </mxCell>
        <mxCell id="iW7-zxRLfLR2xyhtsmo3-80" value="O" style="edgeLabel;html=1;align=center;verticalAlign=middle;resizable=0;points=[];" vertex="1" connectable="0" parent="iW7-zxRLfLR2xyhtsmo3-78">
          <mxGeometry x="-0.2214" y="1" relative="1" as="geometry">
            <mxPoint as="offset" />
          </mxGeometry>
        </mxCell>
        <mxCell id="iW7-zxRLfLR2xyhtsmo3-62" value="q20" style="ellipse;whiteSpace=wrap;html=1;aspect=fixed;" vertex="1" parent="1">
          <mxGeometry x="2500" y="920" width="80" height="80" as="geometry" />
        </mxCell>
        <mxCell id="iW7-zxRLfLR2xyhtsmo3-69" style="edgeStyle=orthogonalEdgeStyle;rounded=0;orthogonalLoop=1;jettySize=auto;html=1;exitX=1;exitY=0.5;exitDx=0;exitDy=0;entryX=-0.01;entryY=0.721;entryDx=0;entryDy=0;entryPerimeter=0;" edge="1" parent="1" source="iW7-zxRLfLR2xyhtsmo3-59" target="iW7-zxRLfLR2xyhtsmo3-62">
          <mxGeometry relative="1" as="geometry" />
        </mxCell>
        <mxCell id="iW7-zxRLfLR2xyhtsmo3-70" value="Epsilon" style="edgeLabel;html=1;align=center;verticalAlign=middle;resizable=0;points=[];" vertex="1" connectable="0" parent="iW7-zxRLfLR2xyhtsmo3-69">
          <mxGeometry x="-0.4776" y="4" relative="1" as="geometry">
            <mxPoint as="offset" />
          </mxGeometry>
        </mxCell>
        <mxCell id="iW7-zxRLfLR2xyhtsmo3-77" value="q21" style="ellipse;whiteSpace=wrap;html=1;" vertex="1" parent="1">
          <mxGeometry x="2660" y="920" width="80" height="80" as="geometry" />
        </mxCell>
        <mxCell id="iW7-zxRLfLR2xyhtsmo3-81" style="edgeStyle=orthogonalEdgeStyle;rounded=0;orthogonalLoop=1;jettySize=auto;html=1;exitX=1;exitY=0;exitDx=0;exitDy=0;entryX=1;entryY=1;entryDx=0;entryDy=0;" edge="1" parent="1" source="iW7-zxRLfLR2xyhtsmo3-62" target="iW7-zxRLfLR2xyhtsmo3-62">
          <mxGeometry relative="1" as="geometry" />
        </mxCell>
        <mxCell id="iW7-zxRLfLR2xyhtsmo3-82" value="SIGMA-O" style="edgeLabel;html=1;align=center;verticalAlign=middle;resizable=0;points=[];" vertex="1" connectable="0" parent="iW7-zxRLfLR2xyhtsmo3-81">
          <mxGeometry x="-0.6968" y="2" relative="1" as="geometry">
            <mxPoint as="offset" />
          </mxGeometry>
        </mxCell>
        <mxCell id="iW7-zxRLfLR2xyhtsmo3-83" value="FAIL" style="ellipse;whiteSpace=wrap;html=1;aspect=fixed;" vertex="1" parent="1">
          <mxGeometry x="955" y="1170" width="80" height="80" as="geometry" />
        </mxCell>
        <mxCell id="iW7-zxRLfLR2xyhtsmo3-84" value="FAIL" style="ellipse;whiteSpace=wrap;html=1;aspect=fixed;" vertex="1" parent="1">
          <mxGeometry x="1115" y="1170" width="80" height="80" as="geometry" />
        </mxCell>
        <mxCell id="iW7-zxRLfLR2xyhtsmo3-85" value="FAIL" style="ellipse;whiteSpace=wrap;html=1;aspect=fixed;" vertex="1" parent="1">
          <mxGeometry x="1275" y="1170" width="80" height="80" as="geometry" />
        </mxCell>
        <mxCell id="iW7-zxRLfLR2xyhtsmo3-104" value="FAIL" style="ellipse;whiteSpace=wrap;html=1;aspect=fixed;" vertex="1" parent="1">
          <mxGeometry x="985" y="530" width="80" height="80" as="geometry" />
        </mxCell>
        <mxCell id="iW7-zxRLfLR2xyhtsmo3-105" value="FAIL" style="ellipse;whiteSpace=wrap;html=1;aspect=fixed;" vertex="1" parent="1">
          <mxGeometry x="1145" y="530" width="80" height="80" as="geometry" />
        </mxCell>
        <mxCell id="iW7-zxRLfLR2xyhtsmo3-106" value="FAIL" style="ellipse;whiteSpace=wrap;html=1;aspect=fixed;" vertex="1" parent="1">
          <mxGeometry x="1305" y="530" width="80" height="80" as="geometry" />
        </mxCell>
        <mxCell id="iW7-zxRLfLR2xyhtsmo3-123" style="edgeStyle=orthogonalEdgeStyle;rounded=0;orthogonalLoop=1;jettySize=auto;html=1;exitX=1;exitY=0;exitDx=0;exitDy=0;entryX=0.5;entryY=0;entryDx=0;entryDy=0;" edge="1" parent="1" source="iW7-zxRLfLR2xyhtsmo3-47" target="iW7-zxRLfLR2xyhtsmo3-47">
          <mxGeometry relative="1" as="geometry">
            <Array as="points">
              <mxPoint x="813" y="350" />
              <mxPoint x="785" y="350" />
            </Array>
          </mxGeometry>
        </mxCell>
        <mxCell id="iW7-zxRLfLR2xyhtsmo3-124" value="Sigma-O" style="edgeLabel;html=1;align=center;verticalAlign=middle;resizable=0;points=[];" vertex="1" connectable="0" parent="iW7-zxRLfLR2xyhtsmo3-123">
          <mxGeometry x="0.3164" y="-2" relative="1" as="geometry">
            <mxPoint as="offset" />
          </mxGeometry>
        </mxCell>
        <mxCell id="iW7-zxRLfLR2xyhtsmo3-125" style="edgeStyle=orthogonalEdgeStyle;rounded=0;orthogonalLoop=1;jettySize=auto;html=1;exitX=0.9;exitY=0.205;exitDx=0;exitDy=0;entryX=0.5;entryY=0;entryDx=0;entryDy=0;exitPerimeter=0;" edge="1" parent="1" source="iW7-zxRLfLR2xyhtsmo3-44">
          <mxGeometry relative="1" as="geometry">
            <mxPoint x="818" y="542" as="sourcePoint" />
            <mxPoint x="790" y="530" as="targetPoint" />
            <Array as="points">
              <mxPoint x="818" y="546" />
              <mxPoint x="818" y="510" />
              <mxPoint x="790" y="510" />
            </Array>
          </mxGeometry>
        </mxCell>
        <mxCell id="iW7-zxRLfLR2xyhtsmo3-126" value="Sigma-O" style="edgeLabel;html=1;align=center;verticalAlign=middle;resizable=0;points=[];" vertex="1" connectable="0" parent="iW7-zxRLfLR2xyhtsmo3-125">
          <mxGeometry x="0.3164" y="-2" relative="1" as="geometry">
            <mxPoint x="28" y="142" as="offset" />
          </mxGeometry>
        </mxCell>
        <mxCell id="iW7-zxRLfLR2xyhtsmo3-128" style="edgeStyle=orthogonalEdgeStyle;rounded=0;orthogonalLoop=1;jettySize=auto;html=1;exitX=1;exitY=0;exitDx=0;exitDy=0;" edge="1" parent="1">
          <mxGeometry relative="1" as="geometry">
            <mxPoint x="825" y="724" as="sourcePoint" />
            <mxPoint x="797" y="692" as="targetPoint" />
            <Array as="points">
              <mxPoint x="825" y="692" />
              <mxPoint x="797" y="692" />
            </Array>
          </mxGeometry>
        </mxCell>
        <mxCell id="iW7-zxRLfLR2xyhtsmo3-129" value="Sigma-O" style="edgeLabel;html=1;align=center;verticalAlign=middle;resizable=0;points=[];" vertex="1" connectable="0" parent="iW7-zxRLfLR2xyhtsmo3-128">
          <mxGeometry x="0.3164" y="-2" relative="1" as="geometry">
            <mxPoint as="offset" />
          </mxGeometry>
        </mxCell>
        <mxCell id="iW7-zxRLfLR2xyhtsmo3-130" style="edgeStyle=orthogonalEdgeStyle;rounded=0;orthogonalLoop=1;jettySize=auto;html=1;exitX=1;exitY=0;exitDx=0;exitDy=0;entryX=0.5;entryY=0;entryDx=0;entryDy=0;" edge="1" parent="1">
          <mxGeometry relative="1" as="geometry">
            <mxPoint x="825" y="1024" as="sourcePoint" />
            <mxPoint x="797" y="1012" as="targetPoint" />
            <Array as="points">
              <mxPoint x="825" y="992" />
              <mxPoint x="797" y="992" />
            </Array>
          </mxGeometry>
        </mxCell>
        <mxCell id="iW7-zxRLfLR2xyhtsmo3-131" value="Sigma-O" style="edgeLabel;html=1;align=center;verticalAlign=middle;resizable=0;points=[];" vertex="1" connectable="0" parent="iW7-zxRLfLR2xyhtsmo3-130">
          <mxGeometry x="0.3164" y="-2" relative="1" as="geometry">
            <mxPoint as="offset" />
          </mxGeometry>
        </mxCell>
        <mxCell id="iW7-zxRLfLR2xyhtsmo3-132" style="edgeStyle=orthogonalEdgeStyle;rounded=0;orthogonalLoop=1;jettySize=auto;html=1;exitX=0.874;exitY=0.187;exitDx=0;exitDy=0;exitPerimeter=0;" edge="1" parent="1" source="iW7-zxRLfLR2xyhtsmo3-38">
          <mxGeometry relative="1" as="geometry">
            <mxPoint x="818" y="1184" as="sourcePoint" />
            <mxPoint x="790" y="1170" as="targetPoint" />
            <Array as="points">
              <mxPoint x="818" y="1185" />
              <mxPoint x="818" y="1152" />
              <mxPoint x="790" y="1152" />
            </Array>
          </mxGeometry>
        </mxCell>
        <mxCell id="iW7-zxRLfLR2xyhtsmo3-133" value="Sigma-O" style="edgeLabel;html=1;align=center;verticalAlign=middle;resizable=0;points=[];" vertex="1" connectable="0" parent="iW7-zxRLfLR2xyhtsmo3-132">
          <mxGeometry x="0.3164" y="-2" relative="1" as="geometry">
            <mxPoint as="offset" />
          </mxGeometry>
        </mxCell>
        <mxCell id="iW7-zxRLfLR2xyhtsmo3-134" style="edgeStyle=orthogonalEdgeStyle;rounded=0;orthogonalLoop=1;jettySize=auto;html=1;exitX=0.956;exitY=0.285;exitDx=0;exitDy=0;entryX=0.658;entryY=0.025;entryDx=0;entryDy=0;exitPerimeter=0;entryPerimeter=0;" edge="1" parent="1" source="iW7-zxRLfLR2xyhtsmo3-24" target="iW7-zxRLfLR2xyhtsmo3-24">
          <mxGeometry relative="1" as="geometry">
            <mxPoint x="735" y="1250" as="sourcePoint" />
            <mxPoint x="707" y="1238" as="targetPoint" />
            <Array as="points">
              <mxPoint x="735" y="1253" />
              <mxPoint x="735" y="1218" />
              <mxPoint x="708" y="1218" />
            </Array>
          </mxGeometry>
        </mxCell>
        <mxCell id="iW7-zxRLfLR2xyhtsmo3-135" value="Sigma-O" style="edgeLabel;html=1;align=center;verticalAlign=middle;resizable=0;points=[];" vertex="1" connectable="0" parent="iW7-zxRLfLR2xyhtsmo3-134">
          <mxGeometry x="0.3164" y="-2" relative="1" as="geometry">
            <mxPoint as="offset" />
          </mxGeometry>
        </mxCell>
        <mxCell id="iW7-zxRLfLR2xyhtsmo3-136" style="edgeStyle=orthogonalEdgeStyle;rounded=0;orthogonalLoop=1;jettySize=auto;html=1;exitX=1;exitY=0;exitDx=0;exitDy=0;entryX=0.5;entryY=0;entryDx=0;entryDy=0;" edge="1" parent="1">
          <mxGeometry relative="1" as="geometry">
            <mxPoint x="818" y="1344" as="sourcePoint" />
            <mxPoint x="790" y="1332" as="targetPoint" />
            <Array as="points">
              <mxPoint x="818" y="1312" />
              <mxPoint x="790" y="1312" />
            </Array>
          </mxGeometry>
        </mxCell>
        <mxCell id="iW7-zxRLfLR2xyhtsmo3-137" value="Sigma-O" style="edgeLabel;html=1;align=center;verticalAlign=middle;resizable=0;points=[];" vertex="1" connectable="0" parent="iW7-zxRLfLR2xyhtsmo3-136">
          <mxGeometry x="0.3164" y="-2" relative="1" as="geometry">
            <mxPoint as="offset" />
          </mxGeometry>
        </mxCell>
        <mxCell id="iW7-zxRLfLR2xyhtsmo3-138" style="edgeStyle=orthogonalEdgeStyle;rounded=0;orthogonalLoop=1;jettySize=auto;html=1;exitX=0.946;exitY=0.298;exitDx=0;exitDy=0;entryX=0.5;entryY=0;entryDx=0;entryDy=0;exitPerimeter=0;" edge="1" parent="1" source="iW7-zxRLfLR2xyhtsmo3-32">
          <mxGeometry relative="1" as="geometry">
            <mxPoint x="735" y="1410" as="sourcePoint" />
            <mxPoint x="707" y="1398" as="targetPoint" />
            <Array as="points">
              <mxPoint x="735" y="1414" />
              <mxPoint x="735" y="1378" />
              <mxPoint x="707" y="1378" />
            </Array>
          </mxGeometry>
        </mxCell>
        <mxCell id="iW7-zxRLfLR2xyhtsmo3-139" value="Sigma-O" style="edgeLabel;html=1;align=center;verticalAlign=middle;resizable=0;points=[];" vertex="1" connectable="0" parent="iW7-zxRLfLR2xyhtsmo3-138">
          <mxGeometry x="0.3164" y="-2" relative="1" as="geometry">
            <mxPoint as="offset" />
          </mxGeometry>
        </mxCell>
        <mxCell id="iW7-zxRLfLR2xyhtsmo3-140" style="edgeStyle=orthogonalEdgeStyle;rounded=0;orthogonalLoop=1;jettySize=auto;html=1;exitX=0.991;exitY=0.438;exitDx=0;exitDy=0;entryX=0.5;entryY=0;entryDx=0;entryDy=0;exitPerimeter=0;" edge="1" parent="1" source="iW7-zxRLfLR2xyhtsmo3-35">
          <mxGeometry relative="1" as="geometry">
            <mxPoint x="745" y="1574" as="sourcePoint" />
            <mxPoint x="717" y="1562" as="targetPoint" />
            <Array as="points">
              <mxPoint x="745" y="1585" />
              <mxPoint x="745" y="1542" />
              <mxPoint x="717" y="1542" />
            </Array>
          </mxGeometry>
        </mxCell>
        <mxCell id="iW7-zxRLfLR2xyhtsmo3-141" value="Sigma-O" style="edgeLabel;html=1;align=center;verticalAlign=middle;resizable=0;points=[];" vertex="1" connectable="0" parent="iW7-zxRLfLR2xyhtsmo3-140">
          <mxGeometry x="0.3164" y="-2" relative="1" as="geometry">
            <mxPoint as="offset" />
          </mxGeometry>
        </mxCell>
        <mxCell id="iW7-zxRLfLR2xyhtsmo3-142" style="edgeStyle=orthogonalEdgeStyle;rounded=0;orthogonalLoop=1;jettySize=auto;html=1;exitX=1;exitY=0;exitDx=0;exitDy=0;entryX=0.5;entryY=0;entryDx=0;entryDy=0;" edge="1" parent="1">
          <mxGeometry relative="1" as="geometry">
            <mxPoint x="1188" y="862" as="sourcePoint" />
            <mxPoint x="1160" y="850" as="targetPoint" />
            <Array as="points">
              <mxPoint x="1188" y="830" />
              <mxPoint x="1160" y="830" />
            </Array>
          </mxGeometry>
        </mxCell>
        <mxCell id="iW7-zxRLfLR2xyhtsmo3-143" value="Sigma-O" style="edgeLabel;html=1;align=center;verticalAlign=middle;resizable=0;points=[];" vertex="1" connectable="0" parent="iW7-zxRLfLR2xyhtsmo3-142">
          <mxGeometry x="0.3164" y="-2" relative="1" as="geometry">
            <mxPoint as="offset" />
          </mxGeometry>
        </mxCell>
        <mxCell id="iW7-zxRLfLR2xyhtsmo3-144" style="edgeStyle=orthogonalEdgeStyle;rounded=0;orthogonalLoop=1;jettySize=auto;html=1;exitX=1;exitY=0;exitDx=0;exitDy=0;entryX=0.5;entryY=0;entryDx=0;entryDy=0;" edge="1" parent="1">
          <mxGeometry relative="1" as="geometry">
            <mxPoint x="1188" y="1034" as="sourcePoint" />
            <mxPoint x="1160" y="1022" as="targetPoint" />
            <Array as="points">
              <mxPoint x="1188" y="1002" />
              <mxPoint x="1160" y="1002" />
            </Array>
          </mxGeometry>
        </mxCell>
        <mxCell id="iW7-zxRLfLR2xyhtsmo3-145" value="Sigma-O" style="edgeLabel;html=1;align=center;verticalAlign=middle;resizable=0;points=[];" vertex="1" connectable="0" parent="iW7-zxRLfLR2xyhtsmo3-144">
          <mxGeometry x="0.3164" y="-2" relative="1" as="geometry">
            <mxPoint as="offset" />
          </mxGeometry>
        </mxCell>
        <mxCell id="iW7-zxRLfLR2xyhtsmo3-146" style="edgeStyle=orthogonalEdgeStyle;rounded=0;orthogonalLoop=1;jettySize=auto;html=1;exitX=1;exitY=0;exitDx=0;exitDy=0;entryX=0.5;entryY=0;entryDx=0;entryDy=0;" edge="1" parent="1">
          <mxGeometry relative="1" as="geometry">
            <mxPoint x="1348" y="1034" as="sourcePoint" />
            <mxPoint x="1320" y="1022" as="targetPoint" />
            <Array as="points">
              <mxPoint x="1348" y="1002" />
              <mxPoint x="1320" y="1002" />
            </Array>
          </mxGeometry>
        </mxCell>
        <mxCell id="iW7-zxRLfLR2xyhtsmo3-147" value="Sigma-O" style="edgeLabel;html=1;align=center;verticalAlign=middle;resizable=0;points=[];" vertex="1" connectable="0" parent="iW7-zxRLfLR2xyhtsmo3-146">
          <mxGeometry x="0.3164" y="-2" relative="1" as="geometry">
            <mxPoint as="offset" />
          </mxGeometry>
        </mxCell>
        <mxCell id="iW7-zxRLfLR2xyhtsmo3-148" style="edgeStyle=orthogonalEdgeStyle;rounded=0;orthogonalLoop=1;jettySize=auto;html=1;exitX=1;exitY=0;exitDx=0;exitDy=0;entryX=0.5;entryY=0;entryDx=0;entryDy=0;" edge="1" parent="1">
          <mxGeometry relative="1" as="geometry">
            <mxPoint x="1038" y="1044" as="sourcePoint" />
            <mxPoint x="1010" y="1032" as="targetPoint" />
            <Array as="points">
              <mxPoint x="1038" y="1012" />
              <mxPoint x="1010" y="1012" />
            </Array>
          </mxGeometry>
        </mxCell>
        <mxCell id="iW7-zxRLfLR2xyhtsmo3-149" value="Sigma-O" style="edgeLabel;html=1;align=center;verticalAlign=middle;resizable=0;points=[];" vertex="1" connectable="0" parent="iW7-zxRLfLR2xyhtsmo3-148">
          <mxGeometry x="0.3164" y="-2" relative="1" as="geometry">
            <mxPoint as="offset" />
          </mxGeometry>
        </mxCell>
        <mxCell id="iW7-zxRLfLR2xyhtsmo3-150" style="edgeStyle=orthogonalEdgeStyle;rounded=0;orthogonalLoop=1;jettySize=auto;html=1;exitX=1;exitY=0;exitDx=0;exitDy=0;entryX=0.5;entryY=0;entryDx=0;entryDy=0;" edge="1" parent="1">
          <mxGeometry relative="1" as="geometry">
            <mxPoint x="1028" y="872" as="sourcePoint" />
            <mxPoint x="1000" y="860" as="targetPoint" />
            <Array as="points">
              <mxPoint x="1028" y="840" />
              <mxPoint x="1000" y="840" />
            </Array>
          </mxGeometry>
        </mxCell>
        <mxCell id="iW7-zxRLfLR2xyhtsmo3-151" value="Sigma-O" style="edgeLabel;html=1;align=center;verticalAlign=middle;resizable=0;points=[];" vertex="1" connectable="0" parent="iW7-zxRLfLR2xyhtsmo3-150">
          <mxGeometry x="0.3164" y="-2" relative="1" as="geometry">
            <mxPoint as="offset" />
          </mxGeometry>
        </mxCell>
        <mxCell id="iW7-zxRLfLR2xyhtsmo3-152" style="edgeStyle=orthogonalEdgeStyle;rounded=0;orthogonalLoop=1;jettySize=auto;html=1;exitX=1;exitY=0;exitDx=0;exitDy=0;entryX=0.5;entryY=0;entryDx=0;entryDy=0;" edge="1" parent="1">
          <mxGeometry relative="1" as="geometry">
            <mxPoint x="1348" y="864" as="sourcePoint" />
            <mxPoint x="1320" y="852" as="targetPoint" />
            <Array as="points">
              <mxPoint x="1348" y="832" />
              <mxPoint x="1320" y="832" />
            </Array>
          </mxGeometry>
        </mxCell>
        <mxCell id="iW7-zxRLfLR2xyhtsmo3-153" value="Sigma-O" style="edgeLabel;html=1;align=center;verticalAlign=middle;resizable=0;points=[];" vertex="1" connectable="0" parent="iW7-zxRLfLR2xyhtsmo3-152">
          <mxGeometry x="0.3164" y="-2" relative="1" as="geometry">
            <mxPoint as="offset" />
          </mxGeometry>
        </mxCell>
        <mxCell id="iW7-zxRLfLR2xyhtsmo3-154" style="edgeStyle=orthogonalEdgeStyle;rounded=0;orthogonalLoop=1;jettySize=auto;html=1;exitX=1;exitY=0;exitDx=0;exitDy=0;entryX=0.5;entryY=0;entryDx=0;entryDy=0;" edge="1" parent="1">
          <mxGeometry relative="1" as="geometry">
            <mxPoint x="1378" y="706" as="sourcePoint" />
            <mxPoint x="1350" y="694" as="targetPoint" />
            <Array as="points">
              <mxPoint x="1378" y="682" />
              <mxPoint x="1350" y="682" />
            </Array>
          </mxGeometry>
        </mxCell>
        <mxCell id="iW7-zxRLfLR2xyhtsmo3-155" value="Sigma-O" style="edgeLabel;html=1;align=center;verticalAlign=middle;resizable=0;points=[];" vertex="1" connectable="0" parent="iW7-zxRLfLR2xyhtsmo3-154">
          <mxGeometry x="0.3164" y="-2" relative="1" as="geometry">
            <mxPoint as="offset" />
          </mxGeometry>
        </mxCell>
        <mxCell id="iW7-zxRLfLR2xyhtsmo3-158" style="edgeStyle=orthogonalEdgeStyle;rounded=0;orthogonalLoop=1;jettySize=auto;html=1;exitX=0.948;exitY=0.313;exitDx=0;exitDy=0;entryX=0.607;entryY=0.024;entryDx=0;entryDy=0;entryPerimeter=0;exitPerimeter=0;" edge="1" parent="1" source="iW7-zxRLfLR2xyhtsmo3-50" target="iW7-zxRLfLR2xyhtsmo3-50">
          <mxGeometry relative="1" as="geometry">
            <mxPoint x="1223" y="714" as="sourcePoint" />
            <mxPoint x="1195" y="702" as="targetPoint" />
            <Array as="points">
              <mxPoint x="1223" y="715" />
              <mxPoint x="1223" y="682" />
              <mxPoint x="1195" y="682" />
              <mxPoint x="1195" y="690" />
              <mxPoint x="1194" y="690" />
            </Array>
          </mxGeometry>
        </mxCell>
        <mxCell id="iW7-zxRLfLR2xyhtsmo3-159" value="Sigma-O" style="edgeLabel;html=1;align=center;verticalAlign=middle;resizable=0;points=[];" vertex="1" connectable="0" parent="iW7-zxRLfLR2xyhtsmo3-158">
          <mxGeometry x="0.3164" y="-2" relative="1" as="geometry">
            <mxPoint as="offset" />
          </mxGeometry>
        </mxCell>
        <mxCell id="iW7-zxRLfLR2xyhtsmo3-160" style="edgeStyle=orthogonalEdgeStyle;rounded=0;orthogonalLoop=1;jettySize=auto;html=1;exitX=0.981;exitY=0.314;exitDx=0;exitDy=0;entryX=0.637;entryY=0.033;entryDx=0;entryDy=0;exitPerimeter=0;entryPerimeter=0;" edge="1" parent="1" source="iW7-zxRLfLR2xyhtsmo3-18" target="iW7-zxRLfLR2xyhtsmo3-18">
          <mxGeometry relative="1" as="geometry">
            <mxPoint x="1064.97" y="712" as="sourcePoint" />
            <mxPoint x="1036.97" y="700" as="targetPoint" />
            <Array as="points">
              <mxPoint x="1065" y="715" />
              <mxPoint x="1065" y="680" />
              <mxPoint x="1037" y="680" />
              <mxPoint x="1037" y="690" />
              <mxPoint x="1036" y="690" />
            </Array>
          </mxGeometry>
        </mxCell>
        <mxCell id="iW7-zxRLfLR2xyhtsmo3-161" value="Sigma-O" style="edgeLabel;html=1;align=center;verticalAlign=middle;resizable=0;points=[];" vertex="1" connectable="0" parent="iW7-zxRLfLR2xyhtsmo3-160">
          <mxGeometry x="0.3164" y="-2" relative="1" as="geometry">
            <mxPoint as="offset" />
          </mxGeometry>
        </mxCell>
        <mxCell id="iW7-zxRLfLR2xyhtsmo3-162" style="edgeStyle=orthogonalEdgeStyle;rounded=0;orthogonalLoop=1;jettySize=auto;html=1;exitX=1;exitY=1;exitDx=0;exitDy=0;entryX=0.5;entryY=1;entryDx=0;entryDy=0;" edge="1" parent="1" source="iW7-zxRLfLR2xyhtsmo3-1" target="iW7-zxRLfLR2xyhtsmo3-1">
          <mxGeometry relative="1" as="geometry">
            <Array as="points">
              <mxPoint x="653" y="960" />
              <mxPoint x="625" y="960" />
            </Array>
          </mxGeometry>
        </mxCell>
        <mxCell id="iW7-zxRLfLR2xyhtsmo3-163" value="Sigma- U" style="edgeLabel;html=1;align=center;verticalAlign=middle;resizable=0;points=[];" vertex="1" connectable="0" parent="iW7-zxRLfLR2xyhtsmo3-162">
          <mxGeometry x="0.1831" relative="1" as="geometry">
            <mxPoint as="offset" />
          </mxGeometry>
        </mxCell>
      </root>
    </mxGraphModel>
  </diagram>
</mxfile>
